<?xml version="1.0" encoding="utf-8"?>
<!-- Generator: Adobe Illustrator 19.2.1, SVG Export Plug-In . SVG Version: 6.00 Build 0)  -->
<svg version="1.1" id="Camada_1" xmlns="http://www.w3.org/2000/svg" xmlns:xlink="http://www.w3.org/1999/xlink" x="0px" y="0px"
	 viewBox="0 0 301 106" style="enable-background:new 0 0 301 106;" xml:space="preserve">
<style type="text/css">
	.st0{fill:#FFFFFF;}
</style>
<g id="_x23_245ed3ff">
</g>
<g id="_x23_ffffffff">
	<path class="st0" d="M300.8-45.5h0.2v0.2C301-45.3,300.8-45.4,300.8-45.5z"/>
	<path class="st0" d="M112.9,21.6c2.1-7.4,5.5-15.9,13.2-18.9c6.8-2.7,15.3,2.3,15.3,9.8c-0.3,16.2-7.6,31.6-18,43.8
		c1.7,5.1,4.4,11.6,10.5,12.5c4.9,0.8,9.1-2.6,11.7-6.4c-2.2-7.9-1.9-16.7,2.2-23.9c3-6.1,9.7-9.6,16.3-10.3
		c2.9-0.3,6.3-0.5,8.7,1.6c3.9,2.9,4.3,8.5,2.8,12.7c-2.9,7.8-10.7,13-18.9,13.2c0.3,3.9,0.3,9.1,4.5,11c4.5,1.5,9.3-1.3,12.1-4.8
		c1.8-1.9,2.8-5.1,5.8-5.5c0.6,7.3-2.6,15.8-9.8,18.6c-8,3.2-17.5-0.7-21.5-8.2c-2.8,4.3-6.6,8.4-11.7,9.7c-5.5,1.2-11.8,0-16-3.8
		c-5.2-4.5-7.7-11.3-8.7-17.9C109.5,43.7,110.3,32.3,112.9,21.6 M128.4,9.8c-2.8,2.3-3.8,6.1-4.6,9.5c-1.9,9.1-1.9,18.5-1.1,27.7
		c4.9-7.4,8.6-15.8,10.6-24.5c0.7-3.8,1.6-7.9,0.5-11.7C133.1,8.5,129.9,8.4,128.4,9.8 M160.6,39.2c-2.1,2.7-3,6-3.9,9.3
		c7-0.2,12.1-6.4,12.4-13.1C166.2,35.9,162.7,36.6,160.6,39.2z"/>
	<path class="st0" d="M44.9,8.3c7-4.2,18,0.7,18.6,9.2c-0.4,7.5-4.8,14-9.7,19.4c3.4,0.3,7,0.8,9.8,3c6.2,4.6,8.1,13.1,6.8,20.4
		c-1.6,10.5-14.6,17.1-24.1,12.9c-2.8-1.2-4.7-3.6-6.5-5.9c-0.3,2.5,0.7,5.9-1.9,7.5c-3.1,0.5-6.6-1.2-8.1-4
		c-2-3.4-2.3-7.4-2.6-11.3c-0.4-10.9,1.2-21.8,4.4-32.2C33.8,19.8,38.1,12.5,44.9,8.3 M52.4,16.6c-5.8,4.9-8.5,12.5-10.2,19.6
		C51,36,56.8,26.8,56.7,18.7C56.7,16.5,54,15,52.4,16.6 M44.5,42.9c-3.7,2.1-3.5,6.9-4.3,10.6c3.4-1.4,7.4-3.5,11-1.4
		c-2.8,1.9-6.4,3.4-7.6,6.8c-0.9,2.1-0.7,5.2,1.6,6.3c4.7,2.6,11,0.8,14.7-2.9c4.3-5.8,3.2-14.9-2.2-19.7
		C53.9,39.8,48.4,40.7,44.5,42.9z"/>
	<path class="st0" d="M157.1,13.5c2.3-3.1,5.4-5.7,9-7.2c1.8-0.9,3.6,0.2,5.1,1.1c-1.4,6.8-8.7,11.5-15.4,11
		C154.7,16.6,156.1,14.9,157.1,13.5z"/>
	<path class="st0" d="M79.7,34.2c4.4-4.8,11.1-6.7,17.4-6.7c5,0.2,8.8,5.1,8.4,10c-0.5,9.7-9.7,17.7-19.3,17.6
		c0.3,3.5,0.6,7.4,3.1,10c2.1,2,5.5,1.5,7.9,0.5c4.6-1.9,6.7-6.7,9.7-10.2c2.3-0.4,2.1,2.6,1.8,4.1c-1.3,5.7-4.8,11.1-10.1,13.7
		c-4.8,2.5-10.6,2.2-15.4,0c-5-2.4-8.1-7.5-9.3-12.7C71.9,51.5,73.6,41.4,79.7,34.2 M94.2,35.7c-4.6,2.4-7.9,7.5-8.1,12.8
		c5.7-1.5,12.6-5.6,12.4-12.2C98.3,33.9,95.5,35.2,94.2,35.7z"/>
	<path class="st0" d="M205.5,33c6.9-5.2,18.2-1.4,21.1,6.7c1.9,5.4,2.2,11.2,3.9,16.6c3-6.6,5-14.7,11.9-18.3c2.8-1.7,6.1,0,8.1,2.1
		c5,5.1,6.8,12.5,7.4,19.4c0.5,3.3,0.5,6.9,2.4,9.8c1.9,2.6,5.4,1.6,8.1,1.2c0.3,1.2,1.2,2.5,0.1,3.6c-3.5,4.2-10.3,3.7-14.3,0.4
		c-7.2-5.7-9.8-15-12.8-23.3c-4.9,6.2-5.5,14.9-11.4,20.4c-1.7,1.8-4.6,2.1-6.7,0.9c-2.9-1.7-5.1-4.6-6.2-7.8
		c-2.7-7.5-3.1-15.5-3.9-23.3c-0.2-1.8-0.6-4.7-3-4.5c-4.1,1.4-7.2,4.7-9.3,8.4c-3.4,7.7-2.2,16.2-2.7,24.3
		c-1.8,5.3-10.9,4.4-12.4-0.7c-1.9-5.2-2.3-10.8-2.8-16.3c-0.3-7.2-0.7-14.5,1.2-21.5c2.3,0.2,4.7,0.4,6.4,2.1
		c3.4,3.2,4,8.2,4.6,12.5C197.9,40.9,201.1,36.3,205.5,33z"/>
	<path class="st0" d="M151.3,80.9c3.4-1.1,7.2,0.5,8.8,3.6c2.7,5.2,2.6,12.3-1.1,17c-3,3.8-9.5,2.8-11.6-1.5
		C144.1,94,144.5,84.3,151.3,80.9 M151.2,82.6c-5.1,3.5-4.9,11.2-2.7,16.3c1.4,3.8,7,4.7,9.4,1.5c3.1-4.2,3.2-10.2,1-14.9
		C157.7,82.6,154,81.1,151.2,82.6z"/>
	<path class="st0" d="M168.3,80.9c3.4-1.1,7.2,0.5,8.8,3.7c2.7,5.2,2.6,12.3-1.1,17c-3,3.9-9.5,2.9-11.6-1.4
		C161.1,94.1,161.5,84.2,168.3,80.9 M168.2,82.6c-2.7,1.5-3.8,4.7-4,7.6c-0.3,3.6,0.1,7.7,2.6,10.5c2.3,2.5,6.9,1.9,8.6-1
		c2.7-4.4,2.7-10.4,0.2-14.9C174.3,82.3,170.8,81.2,168.2,82.6z"/>
	<path class="st0" d="M197.3,80.3c3,7.9,6.4,15.7,9,23.7c-2.8-1.2-2.8-4.7-4-7.1c-3.3,0-6.6,0-9.9,0c-1.2,2.5-1.3,5.9-4,7.2
		C191,96,194.4,88.3,197.3,80.3 M197.2,84.1c-1.3,3.8-2.8,7.5-4.3,11.3c2.9,0,5.8,0,8.7,0.1C200.2,91.6,198.7,87.9,197.2,84.1z"/>
	<path class="st0" d="M239.4,81.1c3.3-0.6,7.1-0.1,9.8,2.1c5.3,4,5.8,12.9,1,17.4c-4.9,5.1-14.7,4.1-18.2-2.2
		C228,92.1,231.7,82.3,239.4,81.1 M239.2,82.7c-6,1.3-9,8.6-6.5,14c2.6,6.6,12.6,7.7,17,2.4c2.5-2.9,2.7-7.3,1.5-10.8
		C249.5,83.6,243.9,81.4,239.2,82.7z"/>
	<path class="st0" d="M129.3,99.4c4.2-6.2,8.4-12.3,12.7-18.3c0.1,5.5,0,11.1,0.1,16.6c1.2,0.2,2.5,0.4,3.4,1.4
		c-0.8,0.1-2.5,0.3-3.3,0.4c0,1.6-0.1,3.1-0.2,4.7c-2.1-0.8-1.2-3.1-1.5-4.8C136.8,99.4,133.1,99.4,129.3,99.4 M131.9,97.9
		c2.9,0,5.8,0,8.7,0c0-4.2,0-8.5,0-12.7C137.8,89.5,134.8,93.7,131.9,97.9z"/>
	<path class="st0" d="M209.4,81.2c5.5,6.5,11.1,12.8,16.4,19.4c0-6.5,0-13,0-19.5l1.5,0.1c0,7.6,0,15.3,0,22.9
		c-5.6-6.3-11-12.7-16.5-19c0,6.1,0,12.3,0,18.4c-0.4,0-1.1,0.1-1.5,0.1C209.4,96.1,209.3,88.7,209.4,81.2z"/>
	<path class="st0" d="M256.9,87.4c-1-4,3.5-7.2,7.1-6.2c2.1,0.2,3.4,2,4.5,3.5c-2.6-0.9-5.3-3-8.1-1.7c-2.3,1-2.9,4.4-0.9,6
		c2.4,1.7,5.4,2.3,7.5,4.4c2.6,2.5,2.4,7.4-0.8,9.4c-3.9,2.8-10.5,0.5-10.7-4.6c2.2,1.7,4,4.9,7.3,4.2c3.1,0.1,5.2-3.1,4.2-5.9
		C265.7,91.6,258,92.6,256.9,87.4z"/>
</g>
</svg>
